# xmcd CD database file
# Copyright (C) 1993-1998 Ti Kan
#
# Track frame offsets:
#  150
#  21265
#  40825
#  69913
#  91895
#  115510
#  151375
#  174933
#  196393
#
# Disc length: 3032 seconds
#
# Revision: 1
# Processed by: cddbd v1.4b41PL1 Copyright (c) Steve Scherf et al.
# Submitted via: CDWizzard Release:4.60
#
DISCID=640bd609
DTITLE=Out Of The Blue - What kind of love
DYEAR=1900
DGENRE=
TTITLE0=What kind of love
TTITLE1=You struck the match
TTITLE2=It's you
TTITLE3=Since i've been lovin'you
TTITLE4=Never had it so good
TTITLE5=Love caravan
TTITLE6=Droppin' the bomb
TTITLE7=Turns out
TTITLE8=Take a ride
EXTD=
EXTT0=
EXTT1=
EXTT2=
EXTT3=
EXTT4=
EXTT5=
EXTT6=
EXTT7=
EXTT8=
PLAYORDER=
